<?xml version="1.0" encoding="utf-8"?>
<!-- Generator: Adobe Illustrator 22.1.0, SVG Export Plug-In . SVG Version: 6.00 Build 0)  -->
<svg version="1.1" id="Layer_1" xmlns="http://www.w3.org/2000/svg" xmlns:xlink="http://www.w3.org/1999/xlink" x="0px" y="0px"
	 viewBox="0 0 864 288" style="enable-background:new 0 0 864 288;" xml:space="preserve">
<style type="text/css">
	.st0{enable-background:new    ;}
	.st1{fill:#FFFFFF;}
	.st2{clip-path:url(#SVGID_2_);fill:none;stroke:#EBEBEB;stroke-width:0.533;stroke-linejoin:round;stroke-miterlimit:10;}
	.st3{clip-path:url(#SVGID_4_);fill:none;stroke:#EBEBEB;stroke-width:0.533;stroke-linejoin:round;stroke-miterlimit:10;}
	.st4{clip-path:url(#SVGID_6_);fill:none;stroke:#EBEBEB;stroke-width:0.533;stroke-linejoin:round;stroke-miterlimit:10;}
	.st5{clip-path:url(#SVGID_8_);fill:none;stroke:#EBEBEB;stroke-width:0.533;stroke-linejoin:round;stroke-miterlimit:10;}
	.st6{clip-path:url(#SVGID_10_);fill:none;stroke:#EBEBEB;stroke-width:0.533;stroke-linejoin:round;stroke-miterlimit:10;}
	.st7{clip-path:url(#SVGID_12_);fill:none;stroke:#EBEBEB;stroke-width:0.533;stroke-linejoin:round;stroke-miterlimit:10;}
	.st8{clip-path:url(#SVGID_14_);fill:none;stroke:#EBEBEB;stroke-width:0.533;stroke-linejoin:round;stroke-miterlimit:10;}
	.st9{clip-path:url(#SVGID_16_);fill:none;stroke:#EBEBEB;stroke-width:0.533;stroke-linejoin:round;stroke-miterlimit:10;}
	.st10{clip-path:url(#SVGID_18_);fill:none;stroke:#EBEBEB;stroke-width:0.533;stroke-linejoin:round;stroke-miterlimit:10;}
	.st11{clip-path:url(#SVGID_20_);fill:none;stroke:#EBEBEB;stroke-width:0.533;stroke-linejoin:round;stroke-miterlimit:10;}
	.st12{clip-path:url(#SVGID_22_);fill:none;stroke:#EBEBEB;stroke-width:0.533;stroke-linejoin:round;stroke-miterlimit:10;}
	.st13{clip-path:url(#SVGID_24_);fill:none;stroke:#EBEBEB;stroke-width:0.533;stroke-linejoin:round;stroke-miterlimit:10;}
	.st14{clip-path:url(#SVGID_26_);fill:none;stroke:#EBEBEB;stroke-width:0.533;stroke-linejoin:round;stroke-miterlimit:10;}
	.st15{clip-path:url(#SVGID_28_);fill:none;stroke:#EBEBEB;stroke-width:0.533;stroke-linejoin:round;stroke-miterlimit:10;}
	.st16{clip-path:url(#SVGID_30_);fill:none;stroke:#EBEBEB;stroke-width:0.533;stroke-linejoin:round;stroke-miterlimit:10;}
	.st17{clip-path:url(#SVGID_32_);fill:none;stroke:#EBEBEB;stroke-width:0.533;stroke-linejoin:round;stroke-miterlimit:10;}
	.st18{clip-path:url(#SVGID_34_);fill:none;stroke:#EBEBEB;stroke-width:0.533;stroke-linejoin:round;stroke-miterlimit:10;}
	.st19{clip-path:url(#SVGID_36_);fill:none;stroke:#EBEBEB;stroke-width:0.533;stroke-linejoin:round;stroke-miterlimit:10;}
	.st20{clip-path:url(#SVGID_38_);fill:none;stroke:#EBEBEB;stroke-width:0.533;stroke-linejoin:round;stroke-miterlimit:10;}
	.st21{clip-path:url(#SVGID_40_);fill:none;stroke:#EBEBEB;stroke-width:0.533;stroke-linejoin:round;stroke-miterlimit:10;}
	.st22{clip-path:url(#SVGID_42_);fill:none;stroke:#EBEBEB;stroke-width:0.533;stroke-linejoin:round;stroke-miterlimit:10;}
	.st23{clip-path:url(#SVGID_44_);fill:none;stroke:#EBEBEB;stroke-width:1.067;stroke-linejoin:round;stroke-miterlimit:10;}
	.st24{clip-path:url(#SVGID_46_);fill:none;stroke:#EBEBEB;stroke-width:1.067;stroke-linejoin:round;stroke-miterlimit:10;}
	.st25{clip-path:url(#SVGID_48_);fill:none;stroke:#EBEBEB;stroke-width:1.067;stroke-linejoin:round;stroke-miterlimit:10;}
	.st26{clip-path:url(#SVGID_50_);fill:none;stroke:#EBEBEB;stroke-width:1.067;stroke-linejoin:round;stroke-miterlimit:10;}
	.st27{clip-path:url(#SVGID_52_);fill:none;stroke:#EBEBEB;stroke-width:1.067;stroke-linejoin:round;stroke-miterlimit:10;}
	.st28{clip-path:url(#SVGID_54_);fill:none;stroke:#EBEBEB;stroke-width:1.067;stroke-linejoin:round;stroke-miterlimit:10;}
	.st29{clip-path:url(#SVGID_56_);fill:none;stroke:#EBEBEB;stroke-width:1.067;stroke-linejoin:round;stroke-miterlimit:10;}
	.st30{clip-path:url(#SVGID_58_);fill:none;stroke:#EBEBEB;stroke-width:1.067;stroke-linejoin:round;stroke-miterlimit:10;}
	.st31{clip-path:url(#SVGID_60_);fill:none;stroke:#EBEBEB;stroke-width:1.067;stroke-linejoin:round;stroke-miterlimit:10;}
	.st32{clip-path:url(#SVGID_62_);fill:none;stroke:#EBEBEB;stroke-width:1.067;stroke-linejoin:round;stroke-miterlimit:10;}
	.st33{clip-path:url(#SVGID_64_);fill:none;stroke:#EBEBEB;stroke-width:1.067;stroke-linejoin:round;stroke-miterlimit:10;}
	.st34{clip-path:url(#SVGID_66_);fill:none;stroke:#EBEBEB;stroke-width:1.067;stroke-linejoin:round;stroke-miterlimit:10;}
	.st35{clip-path:url(#SVGID_68_);fill:none;stroke:#EBEBEB;stroke-width:1.067;stroke-linejoin:round;stroke-miterlimit:10;}
	.st36{clip-path:url(#SVGID_70_);fill:none;stroke:#EBEBEB;stroke-width:1.067;stroke-linejoin:round;stroke-miterlimit:10;}
	.st37{clip-path:url(#SVGID_72_);fill:none;stroke:#EBEBEB;stroke-width:1.067;stroke-linejoin:round;stroke-miterlimit:10;}
	.st38{clip-path:url(#SVGID_74_);fill:none;stroke:#EBEBEB;stroke-width:1.067;stroke-linejoin:round;stroke-miterlimit:10;}
	.st39{clip-path:url(#SVGID_76_);fill:none;stroke:#EBEBEB;stroke-width:1.067;stroke-linejoin:round;stroke-miterlimit:10;}
	.st40{clip-path:url(#SVGID_78_);fill:none;stroke:#EBEBEB;stroke-width:1.067;stroke-linejoin:round;stroke-miterlimit:10;}
	.st41{clip-path:url(#SVGID_80_);fill:none;stroke:#EBEBEB;stroke-width:1.067;stroke-linejoin:round;stroke-miterlimit:10;}
	.st42{opacity:0.502;fill:none;stroke:#000000;stroke-width:2.134;stroke-linejoin:round;stroke-miterlimit:1;}
	.st43{opacity:0.749;}
	
		.st44{opacity:0.749;fill:none;stroke:#000000;stroke-width:0.709;stroke-linecap:round;stroke-linejoin:round;stroke-miterlimit:10;}
	.st45{opacity:0.502;fill:none;stroke:#FF0000;stroke-width:2.134;stroke-linejoin:round;stroke-miterlimit:1;}
	.st46{opacity:0.749;fill:#FF0000;}
	
		.st47{opacity:0.749;fill:none;stroke:#FF0000;stroke-width:0.709;stroke-linecap:round;stroke-linejoin:round;stroke-miterlimit:10;}
	.st48{font-family:'Baskerville';}
	.st49{font-size:28.453px;}
	.st50{fill:#FF0000;}
	.st51{font-size:22.7622px;}
	.st52{fill:#4D4D4D;}
	.st53{font-size:8.8px;}
</style>
<g class="st0">
	<rect class="st1" width="864" height="288"/>
	<g>
		<defs>
			<rect id="SVGID_1_" x="36.7" y="204" width="822.3" height="2"/>
		</defs>
		<clipPath id="SVGID_2_">
			<use xlink:href="#SVGID_1_"  style="overflow:visible;"/>
		</clipPath>
		<line class="st2" x1="36.7" y1="205.1" x2="858.5" y2="205.1"/>
	</g>
	<g>
		<defs>
			<rect id="SVGID_3_" x="36.7" y="138" width="822.3" height="1"/>
		</defs>
		<clipPath id="SVGID_4_">
			<use xlink:href="#SVGID_3_"  style="overflow:visible;"/>
		</clipPath>
		<line class="st3" x1="36.7" y1="138.7" x2="858.5" y2="138.7"/>
	</g>
	<g>
		<defs>
			<rect id="SVGID_5_" x="36.7" y="72" width="822.3" height="1"/>
		</defs>
		<clipPath id="SVGID_6_">
			<use xlink:href="#SVGID_5_"  style="overflow:visible;"/>
		</clipPath>
		<line class="st4" x1="36.7" y1="72.3" x2="858.5" y2="72.3"/>
	</g>
	<g>
		<defs>
			<rect id="SVGID_7_" x="36.7" y="5.5" width="822.3" height="1.5"/>
		</defs>
		<clipPath id="SVGID_8_">
			<use xlink:href="#SVGID_7_"  style="overflow:visible;"/>
		</clipPath>
		<line class="st5" x1="36.7" y1="5.9" x2="858.5" y2="5.9"/>
	</g>
	<g>
		<defs>
			<rect id="SVGID_9_" x="48" y="5.5" width="1" height="244.5"/>
		</defs>
		<clipPath id="SVGID_10_">
			<use xlink:href="#SVGID_9_"  style="overflow:visible;"/>
		</clipPath>
		<line class="st6" x1="48.3" y1="249.4" x2="48.3" y2="5.5"/>
	</g>
	<g>
		<defs>
			<rect id="SVGID_11_" x="99" y="5.5" width="2" height="244.5"/>
		</defs>
		<clipPath id="SVGID_12_">
			<use xlink:href="#SVGID_11_"  style="overflow:visible;"/>
		</clipPath>
		<line class="st7" x1="99.8" y1="249.4" x2="99.8" y2="5.5"/>
	</g>
	<g>
		<defs>
			<rect id="SVGID_13_" x="151" y="5.5" width="1" height="244.5"/>
		</defs>
		<clipPath id="SVGID_14_">
			<use xlink:href="#SVGID_13_"  style="overflow:visible;"/>
		</clipPath>
		<line class="st8" x1="151.3" y1="249.4" x2="151.3" y2="5.5"/>
	</g>
	<g>
		<defs>
			<rect id="SVGID_15_" x="202" y="5.5" width="2" height="244.5"/>
		</defs>
		<clipPath id="SVGID_16_">
			<use xlink:href="#SVGID_15_"  style="overflow:visible;"/>
		</clipPath>
		<line class="st9" x1="202.8" y1="249.4" x2="202.8" y2="5.5"/>
	</g>
	<g>
		<defs>
			<rect id="SVGID_17_" x="254" y="5.5" width="1" height="244.5"/>
		</defs>
		<clipPath id="SVGID_18_">
			<use xlink:href="#SVGID_17_"  style="overflow:visible;"/>
		</clipPath>
		<line class="st10" x1="254.4" y1="249.4" x2="254.4" y2="5.5"/>
	</g>
	<g>
		<defs>
			<rect id="SVGID_19_" x="305" y="5.5" width="2" height="244.5"/>
		</defs>
		<clipPath id="SVGID_20_">
			<use xlink:href="#SVGID_19_"  style="overflow:visible;"/>
		</clipPath>
		<line class="st11" x1="305.9" y1="249.4" x2="305.9" y2="5.5"/>
	</g>
	<g>
		<defs>
			<rect id="SVGID_21_" x="357" y="5.5" width="1" height="244.5"/>
		</defs>
		<clipPath id="SVGID_22_">
			<use xlink:href="#SVGID_21_"  style="overflow:visible;"/>
		</clipPath>
		<line class="st12" x1="357.4" y1="249.4" x2="357.4" y2="5.5"/>
	</g>
	<g>
		<defs>
			<rect id="SVGID_23_" x="408" y="5.5" width="2" height="244.5"/>
		</defs>
		<clipPath id="SVGID_24_">
			<use xlink:href="#SVGID_23_"  style="overflow:visible;"/>
		</clipPath>
		<line class="st13" x1="409" y1="249.4" x2="409" y2="5.5"/>
	</g>
	<g>
		<defs>
			<rect id="SVGID_25_" x="460" y="5.5" width="1" height="244.5"/>
		</defs>
		<clipPath id="SVGID_26_">
			<use xlink:href="#SVGID_25_"  style="overflow:visible;"/>
		</clipPath>
		<line class="st14" x1="460.5" y1="249.4" x2="460.5" y2="5.5"/>
	</g>
	<g>
		<defs>
			<rect id="SVGID_27_" x="511" y="5.5" width="2" height="244.5"/>
		</defs>
		<clipPath id="SVGID_28_">
			<use xlink:href="#SVGID_27_"  style="overflow:visible;"/>
		</clipPath>
		<line class="st15" x1="512" y1="249.4" x2="512" y2="5.5"/>
	</g>
	<g>
		<defs>
			<rect id="SVGID_29_" x="563" y="5.5" width="1" height="244.5"/>
		</defs>
		<clipPath id="SVGID_30_">
			<use xlink:href="#SVGID_29_"  style="overflow:visible;"/>
		</clipPath>
		<line class="st16" x1="563.5" y1="249.4" x2="563.5" y2="5.5"/>
	</g>
	<g>
		<defs>
			<rect id="SVGID_31_" x="614" y="5.5" width="2" height="244.5"/>
		</defs>
		<clipPath id="SVGID_32_">
			<use xlink:href="#SVGID_31_"  style="overflow:visible;"/>
		</clipPath>
		<line class="st17" x1="615.1" y1="249.4" x2="615.1" y2="5.5"/>
	</g>
	<g>
		<defs>
			<rect id="SVGID_33_" x="666" y="5.5" width="1" height="244.5"/>
		</defs>
		<clipPath id="SVGID_34_">
			<use xlink:href="#SVGID_33_"  style="overflow:visible;"/>
		</clipPath>
		<line class="st18" x1="666.6" y1="249.4" x2="666.6" y2="5.5"/>
	</g>
	<g>
		<defs>
			<rect id="SVGID_35_" x="717" y="5.5" width="2" height="244.5"/>
		</defs>
		<clipPath id="SVGID_36_">
			<use xlink:href="#SVGID_35_"  style="overflow:visible;"/>
		</clipPath>
		<line class="st19" x1="718.1" y1="249.4" x2="718.1" y2="5.5"/>
	</g>
	<g>
		<defs>
			<rect id="SVGID_37_" x="769" y="5.5" width="1" height="244.5"/>
		</defs>
		<clipPath id="SVGID_38_">
			<use xlink:href="#SVGID_37_"  style="overflow:visible;"/>
		</clipPath>
		<line class="st20" x1="769.6" y1="249.4" x2="769.6" y2="5.5"/>
	</g>
	<g>
		<defs>
			<rect id="SVGID_39_" x="820" y="5.5" width="2" height="244.5"/>
		</defs>
		<clipPath id="SVGID_40_">
			<use xlink:href="#SVGID_39_"  style="overflow:visible;"/>
		</clipPath>
		<line class="st21" x1="821.2" y1="249.4" x2="821.2" y2="5.5"/>
	</g>
	<g>
		<defs>
			<rect id="SVGID_41_" x="846" y="5.5" width="2" height="244.5"/>
		</defs>
		<clipPath id="SVGID_42_">
			<use xlink:href="#SVGID_41_"  style="overflow:visible;"/>
		</clipPath>
		<line class="st22" x1="846.9" y1="249.4" x2="846.9" y2="5.5"/>
	</g>
	<g>
		<defs>
			<rect id="SVGID_43_" x="36.7" y="237" width="822.3" height="2"/>
		</defs>
		<clipPath id="SVGID_44_">
			<use xlink:href="#SVGID_43_"  style="overflow:visible;"/>
		</clipPath>
		<line class="st23" x1="36.7" y1="238.3" x2="858.5" y2="238.3"/>
	</g>
	<g>
		<defs>
			<rect id="SVGID_45_" x="36.7" y="171" width="822.3" height="2"/>
		</defs>
		<clipPath id="SVGID_46_">
			<use xlink:href="#SVGID_45_"  style="overflow:visible;"/>
		</clipPath>
		<line class="st24" x1="36.7" y1="171.9" x2="858.5" y2="171.9"/>
	</g>
	<g>
		<defs>
			<rect id="SVGID_47_" x="36.7" y="104" width="822.3" height="3"/>
		</defs>
		<clipPath id="SVGID_48_">
			<use xlink:href="#SVGID_47_"  style="overflow:visible;"/>
		</clipPath>
		<line class="st25" x1="36.7" y1="105.5" x2="858.5" y2="105.5"/>
	</g>
	<g>
		<defs>
			<rect id="SVGID_49_" x="36.7" y="38" width="822.3" height="2"/>
		</defs>
		<clipPath id="SVGID_50_">
			<use xlink:href="#SVGID_49_"  style="overflow:visible;"/>
		</clipPath>
		<line class="st26" x1="36.7" y1="39.1" x2="858.5" y2="39.1"/>
	</g>
	<g>
		<defs>
			<rect id="SVGID_51_" x="73" y="5.5" width="2" height="244.5"/>
		</defs>
		<clipPath id="SVGID_52_">
			<use xlink:href="#SVGID_51_"  style="overflow:visible;"/>
		</clipPath>
		<line class="st27" x1="74" y1="249.4" x2="74" y2="5.5"/>
	</g>
	<g>
		<defs>
			<rect id="SVGID_53_" x="125" y="5.5" width="2" height="244.5"/>
		</defs>
		<clipPath id="SVGID_54_">
			<use xlink:href="#SVGID_53_"  style="overflow:visible;"/>
		</clipPath>
		<line class="st28" x1="125.6" y1="249.4" x2="125.6" y2="5.5"/>
	</g>
	<g>
		<defs>
			<rect id="SVGID_55_" x="176" y="5.5" width="2" height="244.5"/>
		</defs>
		<clipPath id="SVGID_56_">
			<use xlink:href="#SVGID_55_"  style="overflow:visible;"/>
		</clipPath>
		<line class="st29" x1="177.1" y1="249.4" x2="177.1" y2="5.5"/>
	</g>
	<g>
		<defs>
			<rect id="SVGID_57_" x="228" y="5.5" width="2" height="244.5"/>
		</defs>
		<clipPath id="SVGID_58_">
			<use xlink:href="#SVGID_57_"  style="overflow:visible;"/>
		</clipPath>
		<line class="st30" x1="228.6" y1="249.4" x2="228.6" y2="5.5"/>
	</g>
	<g>
		<defs>
			<rect id="SVGID_59_" x="279" y="5.5" width="2" height="244.5"/>
		</defs>
		<clipPath id="SVGID_60_">
			<use xlink:href="#SVGID_59_"  style="overflow:visible;"/>
		</clipPath>
		<line class="st31" x1="280.1" y1="249.4" x2="280.1" y2="5.5"/>
	</g>
	<g>
		<defs>
			<rect id="SVGID_61_" x="331" y="5.5" width="2" height="244.5"/>
		</defs>
		<clipPath id="SVGID_62_">
			<use xlink:href="#SVGID_61_"  style="overflow:visible;"/>
		</clipPath>
		<line class="st32" x1="331.7" y1="249.4" x2="331.7" y2="5.5"/>
	</g>
	<g>
		<defs>
			<rect id="SVGID_63_" x="382" y="5.5" width="2" height="244.5"/>
		</defs>
		<clipPath id="SVGID_64_">
			<use xlink:href="#SVGID_63_"  style="overflow:visible;"/>
		</clipPath>
		<line class="st33" x1="383.2" y1="249.4" x2="383.2" y2="5.5"/>
	</g>
	<g>
		<defs>
			<rect id="SVGID_65_" x="434" y="5.5" width="2" height="244.5"/>
		</defs>
		<clipPath id="SVGID_66_">
			<use xlink:href="#SVGID_65_"  style="overflow:visible;"/>
		</clipPath>
		<line class="st34" x1="434.7" y1="249.4" x2="434.7" y2="5.5"/>
	</g>
	<g>
		<defs>
			<rect id="SVGID_67_" x="485" y="5.5" width="2" height="244.5"/>
		</defs>
		<clipPath id="SVGID_68_">
			<use xlink:href="#SVGID_67_"  style="overflow:visible;"/>
		</clipPath>
		<line class="st35" x1="486.2" y1="249.4" x2="486.2" y2="5.5"/>
	</g>
	<g>
		<defs>
			<rect id="SVGID_69_" x="537" y="5.5" width="2" height="244.5"/>
		</defs>
		<clipPath id="SVGID_70_">
			<use xlink:href="#SVGID_69_"  style="overflow:visible;"/>
		</clipPath>
		<line class="st36" x1="537.8" y1="249.4" x2="537.8" y2="5.5"/>
	</g>
	<g>
		<defs>
			<rect id="SVGID_71_" x="588" y="5.5" width="2" height="244.5"/>
		</defs>
		<clipPath id="SVGID_72_">
			<use xlink:href="#SVGID_71_"  style="overflow:visible;"/>
		</clipPath>
		<line class="st37" x1="589.3" y1="249.4" x2="589.3" y2="5.5"/>
	</g>
	<g>
		<defs>
			<rect id="SVGID_73_" x="640" y="5.5" width="2" height="244.5"/>
		</defs>
		<clipPath id="SVGID_74_">
			<use xlink:href="#SVGID_73_"  style="overflow:visible;"/>
		</clipPath>
		<line class="st38" x1="640.8" y1="249.4" x2="640.8" y2="5.5"/>
	</g>
	<g>
		<defs>
			<rect id="SVGID_75_" x="691" y="5.5" width="2" height="244.5"/>
		</defs>
		<clipPath id="SVGID_76_">
			<use xlink:href="#SVGID_75_"  style="overflow:visible;"/>
		</clipPath>
		<line class="st39" x1="692.3" y1="249.4" x2="692.3" y2="5.5"/>
	</g>
	<g>
		<defs>
			<rect id="SVGID_77_" x="743" y="5.5" width="2" height="244.5"/>
		</defs>
		<clipPath id="SVGID_78_">
			<use xlink:href="#SVGID_77_"  style="overflow:visible;"/>
		</clipPath>
		<line class="st40" x1="743.9" y1="249.4" x2="743.9" y2="5.5"/>
	</g>
	<g>
		<defs>
			<rect id="SVGID_79_" x="794" y="5.5" width="2" height="244.5"/>
		</defs>
		<clipPath id="SVGID_80_">
			<use xlink:href="#SVGID_79_"  style="overflow:visible;"/>
		</clipPath>
		<line class="st41" x1="795.4" y1="249.4" x2="795.4" y2="5.5"/>
	</g>
	<polyline class="st42" points="74,238.3 74,211.1 99.8,211.1 99.8,227.7 125.6,227.7 125.6,216.4 151.3,216.4 151.3,193.8 
		177.1,193.8 177.1,130.7 202.8,130.7 202.8,64.4 228.6,64.4 228.6,59.7 254.4,59.7 254.4,16.6 280.1,16.6 280.1,39.1 305.9,39.1 
		305.9,66.4 331.7,66.4 331.7,128.8 357.4,128.8 357.4,66.4 383.2,66.4 383.2,120.8 409,120.8 409,106.8 434.7,106.8 434.7,55.7 
		460.5,55.7 460.5,91.6 486.2,91.6 486.2,144.7 512,144.7 512,151.3 537.8,151.3 537.8,122.8 563.5,122.8 563.5,187.2 589.3,187.2 
		589.3,189.2 615.1,189.2 615.1,194.5 640.8,194.5 640.8,199.1 666.6,199.1 666.6,207.1 692.3,207.1 692.3,154.6 718.1,154.6 
		718.1,184.5 743.9,184.5 743.9,142 769.6,142 769.6,213.1 795.4,213.1 795.4,185.8 821.2,185.8 	"/>
	<path class="st43" d="M76.5,238.3c0,3.3-5,3.3-5,0C71.5,235,76.5,235,76.5,238.3"/>
	<path class="st44" d="M76.5,238.3c0,3.3-5,3.3-5,0C71.5,235,76.5,235,76.5,238.3"/>
	<path class="st43" d="M102.3,211.1c0,3.3-5,3.3-5,0C97.3,207.8,102.3,207.8,102.3,211.1"/>
	<path class="st44" d="M102.3,211.1c0,3.3-5,3.3-5,0C97.3,207.8,102.3,207.8,102.3,211.1"/>
	<path class="st43" d="M128,227.7c0,3.3-5,3.3-5,0C123.1,224.3,128,224.3,128,227.7"/>
	<path class="st44" d="M128,227.7c0,3.3-5,3.3-5,0C123.1,224.3,128,224.3,128,227.7"/>
	<path class="st43" d="M153.8,216.4c0,3.3-5,3.3-5,0C148.8,213.1,153.8,213.1,153.8,216.4"/>
	<path class="st44" d="M153.8,216.4c0,3.3-5,3.3-5,0C148.8,213.1,153.8,213.1,153.8,216.4"/>
	<path class="st43" d="M179.6,193.8c0,3.3-5,3.3-5,0C174.6,190.5,179.6,190.5,179.6,193.8"/>
	<path class="st44" d="M179.6,193.8c0,3.3-5,3.3-5,0C174.6,190.5,179.6,190.5,179.6,193.8"/>
	<path class="st43" d="M205.3,130.7c0,3.3-5,3.3-5,0C200.4,127.4,205.3,127.4,205.3,130.7"/>
	<path class="st44" d="M205.3,130.7c0,3.3-5,3.3-5,0C200.4,127.4,205.3,127.4,205.3,130.7"/>
	<path class="st43" d="M231.1,64.4c0,3.3-5,3.3-5,0C226.1,61,231.1,61,231.1,64.4"/>
	<path class="st44" d="M231.1,64.4c0,3.3-5,3.3-5,0C226.1,61,231.1,61,231.1,64.4"/>
	<path class="st43" d="M256.9,59.7c0,3.3-5,3.3-5,0C251.9,56.4,256.9,56.4,256.9,59.7"/>
	<path class="st44" d="M256.9,59.7c0,3.3-5,3.3-5,0C251.9,56.4,256.9,56.4,256.9,59.7"/>
	<path class="st43" d="M282.6,16.6c0,3.3-5,3.3-5,0C277.6,13.2,282.6,13.2,282.6,16.6"/>
	<path class="st44" d="M282.6,16.6c0,3.3-5,3.3-5,0C277.6,13.2,282.6,13.2,282.6,16.6"/>
	<path class="st43" d="M308.4,39.1c0,3.3-5,3.3-5,0C303.4,35.8,308.4,35.8,308.4,39.1"/>
	<path class="st44" d="M308.4,39.1c0,3.3-5,3.3-5,0C303.4,35.8,308.4,35.8,308.4,39.1"/>
	<path class="st43" d="M334.1,66.4c0,3.3-5,3.3-5,0C329.2,63,334.1,63,334.1,66.4"/>
	<path class="st44" d="M334.1,66.4c0,3.3-5,3.3-5,0C329.2,63,334.1,63,334.1,66.4"/>
	<path class="st43" d="M359.9,128.8c0,3.3-5,3.3-5,0C354.9,125.4,359.9,125.4,359.9,128.8"/>
	<path class="st44" d="M359.9,128.8c0,3.3-5,3.3-5,0C354.9,125.4,359.9,125.4,359.9,128.8"/>
	<path class="st43" d="M385.7,66.4c0,3.3-5,3.3-5,0C380.7,63,385.7,63,385.7,66.4"/>
	<path class="st44" d="M385.7,66.4c0,3.3-5,3.3-5,0C380.7,63,385.7,63,385.7,66.4"/>
	<path class="st43" d="M411.4,120.8c0,3.3-5,3.3-5,0C406.5,117.5,411.4,117.5,411.4,120.8"/>
	<path class="st44" d="M411.4,120.8c0,3.3-5,3.3-5,0C406.5,117.5,411.4,117.5,411.4,120.8"/>
	<path class="st43" d="M437.2,106.8c0,3.3-5,3.3-5,0C432.2,103.5,437.2,103.5,437.2,106.8"/>
	<path class="st44" d="M437.2,106.8c0,3.3-5,3.3-5,0C432.2,103.5,437.2,103.5,437.2,106.8"/>
	<path class="st43" d="M463,55.7c0,3.3-5,3.3-5,0C458,52.4,463,52.4,463,55.7"/>
	<path class="st44" d="M463,55.7c0,3.3-5,3.3-5,0C458,52.4,463,52.4,463,55.7"/>
	<path class="st43" d="M488.7,91.6c0,3.3-5,3.3-5,0C483.8,88.3,488.7,88.3,488.7,91.6"/>
	<path class="st44" d="M488.7,91.6c0,3.3-5,3.3-5,0C483.8,88.3,488.7,88.3,488.7,91.6"/>
	<path class="st43" d="M514.5,144.7c0,3.3-5,3.3-5,0C509.5,141.4,514.5,141.4,514.5,144.7"/>
	<path class="st44" d="M514.5,144.7c0,3.3-5,3.3-5,0C509.5,141.4,514.5,141.4,514.5,144.7"/>
	<path class="st43" d="M540.3,151.3c0,3.3-5,3.3-5,0C535.3,148,540.3,148,540.3,151.3"/>
	<path class="st44" d="M540.3,151.3c0,3.3-5,3.3-5,0C535.3,148,540.3,148,540.3,151.3"/>
	<path class="st43" d="M566,122.8c0,3.3-5,3.3-5,0C561,119.5,566,119.5,566,122.8"/>
	<path class="st44" d="M566,122.8c0,3.3-5,3.3-5,0C561,119.5,566,119.5,566,122.8"/>
	<path class="st43" d="M591.8,187.2c0,3.3-5,3.3-5,0C586.8,183.9,591.8,183.9,591.8,187.2"/>
	<path class="st44" d="M591.8,187.2c0,3.3-5,3.3-5,0C586.8,183.9,591.8,183.9,591.8,187.2"/>
	<path class="st43" d="M617.5,189.2c0,3.3-5,3.3-5,0C612.6,185.8,617.5,185.8,617.5,189.2"/>
	<path class="st44" d="M617.5,189.2c0,3.3-5,3.3-5,0C612.6,185.8,617.5,185.8,617.5,189.2"/>
	<path class="st43" d="M643.3,194.5c0,3.3-5,3.3-5,0C638.3,191.2,643.3,191.2,643.3,194.5"/>
	<path class="st44" d="M643.3,194.5c0,3.3-5,3.3-5,0C638.3,191.2,643.3,191.2,643.3,194.5"/>
	<path class="st43" d="M669.1,199.1c0,3.3-5,3.3-5,0C664.1,195.8,669.1,195.8,669.1,199.1"/>
	<path class="st44" d="M669.1,199.1c0,3.3-5,3.3-5,0C664.1,195.8,669.1,195.8,669.1,199.1"/>
	<path class="st43" d="M694.8,207.1c0,3.3-5,3.3-5,0C689.9,203.8,694.8,203.8,694.8,207.1"/>
	<path class="st44" d="M694.8,207.1c0,3.3-5,3.3-5,0C689.9,203.8,694.8,203.8,694.8,207.1"/>
	<path class="st43" d="M720.6,154.6c0,3.3-5,3.3-5,0C715.6,151.3,720.6,151.3,720.6,154.6"/>
	<path class="st44" d="M720.6,154.6c0,3.3-5,3.3-5,0C715.6,151.3,720.6,151.3,720.6,154.6"/>
	<path class="st43" d="M746.4,184.5c0,3.3-5,3.3-5,0C741.4,181.2,746.4,181.2,746.4,184.5"/>
	<path class="st44" d="M746.4,184.5c0,3.3-5,3.3-5,0C741.4,181.2,746.4,181.2,746.4,184.5"/>
	<path class="st43" d="M772.1,142c0,3.3-5,3.3-5,0C767.1,138.7,772.1,138.7,772.1,142"/>
	<path class="st44" d="M772.1,142c0,3.3-5,3.3-5,0C767.1,138.7,772.1,138.7,772.1,142"/>
	<path class="st43" d="M797.9,213.1c0,3.3-5,3.3-5,0C792.9,209.7,797.9,209.7,797.9,213.1"/>
	<path class="st44" d="M797.9,213.1c0,3.3-5,3.3-5,0C792.9,209.7,797.9,209.7,797.9,213.1"/>
	<path class="st43" d="M823.7,185.8c0,3.3-5,3.3-5,0C818.7,182.5,823.7,182.5,823.7,185.8"/>
	<path class="st44" d="M823.7,185.8c0,3.3-5,3.3-5,0C818.7,182.5,823.7,182.5,823.7,185.8"/>
	<polyline class="st45" points="74,238.3 74,211.7 99.8,211.7 99.8,228.3 125.6,228.3 125.6,219.7 151.3,219.7 151.3,211.7 
		177.1,211.7 177.1,183.2 202.8,183.2 202.8,169.9 228.6,169.9 228.6,151.3 254.4,151.3 254.4,140 280.1,140 280.1,163.9 
		305.9,163.9 305.9,175.9 331.7,175.9 331.7,191.2 357.4,191.2 357.4,180.5 383.2,180.5 383.2,182.5 409,182.5 409,173.2 
		434.7,173.2 434.7,187.2 460.5,187.2 460.5,193.8 486.2,193.8 486.2,203.1 512,203.1 512,199.8 537.8,199.8 537.8,215.1 
		563.5,215.1 563.5,213.1 589.3,213.1 589.3,221.7 615.1,221.7 615.1,204.4 640.8,204.4 640.8,213.1 666.6,213.1 666.6,217.7 
		692.3,217.7 692.3,204.4 718.1,204.4 718.1,211.7 743.9,211.7 743.9,187.8 769.6,187.8 769.6,219.7 795.4,219.7 795.4,203.8 
		821.2,203.8 	"/>
	<path class="st46" d="M76.5,238.3c0,3.3-5,3.3-5,0C71.5,235,76.5,235,76.5,238.3"/>
	<path class="st47" d="M76.5,238.3c0,3.3-5,3.3-5,0C71.5,235,76.5,235,76.5,238.3"/>
	<path class="st46" d="M102.3,211.7c0,3.3-5,3.3-5,0C97.3,208.4,102.3,208.4,102.3,211.7"/>
	<path class="st47" d="M102.3,211.7c0,3.3-5,3.3-5,0C97.3,208.4,102.3,208.4,102.3,211.7"/>
	<path class="st46" d="M128,228.3c0,3.3-5,3.3-5,0C123.1,225,128,225,128,228.3"/>
	<path class="st47" d="M128,228.3c0,3.3-5,3.3-5,0C123.1,225,128,225,128,228.3"/>
	<path class="st46" d="M153.8,219.7c0,3.3-5,3.3-5,0C148.8,216.4,153.8,216.4,153.8,219.7"/>
	<path class="st47" d="M153.8,219.7c0,3.3-5,3.3-5,0C148.8,216.4,153.8,216.4,153.8,219.7"/>
	<path class="st46" d="M179.6,211.7c0,3.3-5,3.3-5,0C174.6,208.4,179.6,208.4,179.6,211.7"/>
	<path class="st47" d="M179.6,211.7c0,3.3-5,3.3-5,0C174.6,208.4,179.6,208.4,179.6,211.7"/>
	<path class="st46" d="M205.3,183.2c0,3.3-5,3.3-5,0C200.4,179.9,205.3,179.9,205.3,183.2"/>
	<path class="st47" d="M205.3,183.2c0,3.3-5,3.3-5,0C200.4,179.9,205.3,179.9,205.3,183.2"/>
	<path class="st46" d="M231.1,169.9c0,3.3-5,3.3-5,0C226.1,166.6,231.1,166.6,231.1,169.9"/>
	<path class="st47" d="M231.1,169.9c0,3.3-5,3.3-5,0C226.1,166.6,231.1,166.6,231.1,169.9"/>
	<path class="st46" d="M256.9,151.3c0,3.3-5,3.3-5,0C251.9,148,256.9,148,256.9,151.3"/>
	<path class="st47" d="M256.9,151.3c0,3.3-5,3.3-5,0C251.9,148,256.9,148,256.9,151.3"/>
	<path class="st46" d="M282.6,140c0,3.3-5,3.3-5,0C277.6,136.7,282.6,136.7,282.6,140"/>
	<path class="st47" d="M282.6,140c0,3.3-5,3.3-5,0C277.6,136.7,282.6,136.7,282.6,140"/>
	<path class="st46" d="M308.4,163.9c0,3.3-5,3.3-5,0C303.4,160.6,308.4,160.6,308.4,163.9"/>
	<path class="st47" d="M308.4,163.9c0,3.3-5,3.3-5,0C303.4,160.6,308.4,160.6,308.4,163.9"/>
	<path class="st46" d="M334.1,175.9c0,3.3-5,3.3-5,0C329.2,172.6,334.1,172.6,334.1,175.9"/>
	<path class="st47" d="M334.1,175.9c0,3.3-5,3.3-5,0C329.2,172.6,334.1,172.6,334.1,175.9"/>
	<path class="st46" d="M359.9,191.2c0,3.3-5,3.3-5,0C354.9,187.8,359.9,187.8,359.9,191.2"/>
	<path class="st47" d="M359.9,191.2c0,3.3-5,3.3-5,0C354.9,187.8,359.9,187.8,359.9,191.2"/>
	<path class="st46" d="M385.7,180.5c0,3.3-5,3.3-5,0C380.7,177.2,385.7,177.2,385.7,180.5"/>
	<path class="st47" d="M385.7,180.5c0,3.3-5,3.3-5,0C380.7,177.2,385.7,177.2,385.7,180.5"/>
	<path class="st46" d="M411.4,182.5c0,3.3-5,3.3-5,0C406.5,179.2,411.4,179.2,411.4,182.5"/>
	<path class="st47" d="M411.4,182.5c0,3.3-5,3.3-5,0C406.5,179.2,411.4,179.2,411.4,182.5"/>
	<path class="st46" d="M437.2,173.2c0,3.3-5,3.3-5,0C432.2,169.9,437.2,169.9,437.2,173.2"/>
	<path class="st47" d="M437.2,173.2c0,3.3-5,3.3-5,0C432.2,169.9,437.2,169.9,437.2,173.2"/>
	<path class="st46" d="M463,187.2c0,3.3-5,3.3-5,0C458,183.9,463,183.9,463,187.2"/>
	<path class="st47" d="M463,187.2c0,3.3-5,3.3-5,0C458,183.9,463,183.9,463,187.2"/>
	<path class="st46" d="M488.7,193.8c0,3.3-5,3.3-5,0C483.8,190.5,488.7,190.5,488.7,193.8"/>
	<path class="st47" d="M488.7,193.8c0,3.3-5,3.3-5,0C483.8,190.5,488.7,190.5,488.7,193.8"/>
	<path class="st46" d="M514.5,203.1c0,3.3-5,3.3-5,0C509.5,199.8,514.5,199.8,514.5,203.1"/>
	<path class="st47" d="M514.5,203.1c0,3.3-5,3.3-5,0C509.5,199.8,514.5,199.8,514.5,203.1"/>
	<path class="st46" d="M540.3,199.8c0,3.3-5,3.3-5,0C535.3,196.5,540.3,196.5,540.3,199.8"/>
	<path class="st47" d="M540.3,199.8c0,3.3-5,3.3-5,0C535.3,196.5,540.3,196.5,540.3,199.8"/>
	<path class="st46" d="M566,215.1c0,3.3-5,3.3-5,0C561,211.7,566,211.7,566,215.1"/>
	<path class="st47" d="M566,215.1c0,3.3-5,3.3-5,0C561,211.7,566,211.7,566,215.1"/>
	<path class="st46" d="M591.8,213.1c0,3.3-5,3.3-5,0C586.8,209.7,591.8,209.7,591.8,213.1"/>
	<path class="st47" d="M591.8,213.1c0,3.3-5,3.3-5,0C586.8,209.7,591.8,209.7,591.8,213.1"/>
	<path class="st46" d="M617.5,221.7c0,3.3-5,3.3-5,0C612.6,218.4,617.5,218.4,617.5,221.7"/>
	<path class="st47" d="M617.5,221.7c0,3.3-5,3.3-5,0C612.6,218.4,617.5,218.4,617.5,221.7"/>
	<path class="st46" d="M643.3,204.4c0,3.3-5,3.3-5,0C638.3,201.1,643.3,201.1,643.3,204.4"/>
	<path class="st47" d="M643.3,204.4c0,3.3-5,3.3-5,0C638.3,201.1,643.3,201.1,643.3,204.4"/>
	<path class="st46" d="M669.1,213.1c0,3.3-5,3.3-5,0C664.1,209.7,669.1,209.7,669.1,213.1"/>
	<path class="st47" d="M669.1,213.1c0,3.3-5,3.3-5,0C664.1,209.7,669.1,209.7,669.1,213.1"/>
	<path class="st46" d="M694.8,217.7c0,3.3-5,3.3-5,0C689.9,214.4,694.8,214.4,694.8,217.7"/>
	<path class="st47" d="M694.8,217.7c0,3.3-5,3.3-5,0C689.9,214.4,694.8,214.4,694.8,217.7"/>
	<path class="st46" d="M720.6,204.4c0,3.3-5,3.3-5,0C715.6,201.1,720.6,201.1,720.6,204.4"/>
	<path class="st47" d="M720.6,204.4c0,3.3-5,3.3-5,0C715.6,201.1,720.6,201.1,720.6,204.4"/>
	<path class="st46" d="M746.4,211.7c0,3.3-5,3.3-5,0C741.4,208.4,746.4,208.4,746.4,211.7"/>
	<path class="st47" d="M746.4,211.7c0,3.3-5,3.3-5,0C741.4,208.4,746.4,208.4,746.4,211.7"/>
	<path class="st46" d="M772.1,187.8c0,3.3-5,3.3-5,0C767.1,184.5,772.1,184.5,772.1,187.8"/>
	<path class="st47" d="M772.1,187.8c0,3.3-5,3.3-5,0C767.1,184.5,772.1,184.5,772.1,187.8"/>
	<path class="st46" d="M797.9,219.7c0,3.3-5,3.3-5,0C792.9,216.4,797.9,216.4,797.9,219.7"/>
	<path class="st47" d="M797.9,219.7c0,3.3-5,3.3-5,0C792.9,216.4,797.9,216.4,797.9,219.7"/>
	<path class="st46" d="M823.7,203.8c0,3.3-5,3.3-5,0C818.7,200.4,823.7,200.4,823.7,203.8"/>
	<path class="st47" d="M823.7,203.8c0,3.3-5,3.3-5,0C818.7,200.4,823.7,200.4,823.7,203.8"/>
	<text transform="matrix(-6.123234e-17 -1 1 -6.123234e-17 839.5721 121.5742)" class="st48 st49">Open</text>
	<text transform="matrix(-6.123234e-17 -1 1 -6.123234e-17 839.5718 55.7754)" class="st48 st49">ITI</text>
	<text transform="matrix(-6.123234e-17 -1 1 -6.123234e-17 89.2617 90.6094)"><tspan x="0" y="0" class="st50 st48 st51">A</tspan><tspan x="15.6" y="0" class="st50 st48 st51">u</tspan><tspan x="27.5" y="0" class="st50 st48 st51">t</tspan><tspan x="34.2" y="0" class="st50 st48 st51">h</tspan><tspan x="46.4" y="0" class="st50 st48 st51">o</tspan><tspan x="57.9" y="0" class="st50 st48 st51">r</tspan><tspan x="66.3" y="0" class="st50 st48 st51">s</tspan></text>
	<text transform="matrix(-6.123234e-17 -1 1 -6.123234e-17 115.0287 71.9219)"><tspan x="0" y="0" class="st48 st51">Bo</tspan><tspan x="25.6" y="0" class="st48 st51">ok</tspan><tspan x="47.6" y="0" class="st48 st51">s</tspan></text>
	<text transform="matrix(1 0 0 1 27.2383 241.2617)" class="st52 st48 st53">0</text>
	<text transform="matrix(1 0 0 1 18.2358 174.8828)"><tspan x="0" y="0" class="st52 st48 st53">1</tspan><tspan x="4.5" y="0" class="st52 st48 st53">0</tspan><tspan x="9" y="0" class="st52 st48 st53">0</tspan></text>
	<text transform="matrix(1 0 0 1 18.2358 108.5049)"><tspan x="0" y="0" class="st52 st48 st53">2</tspan><tspan x="4.5" y="0" class="st52 st48 st53">0</tspan><tspan x="9" y="0" class="st52 st48 st53">0</tspan></text>
	<text transform="matrix(1 0 0 1 18.2358 42.1265)"><tspan x="0" y="0" class="st52 st48 st53">3</tspan><tspan x="4.5" y="0" class="st52 st48 st53">0</tspan><tspan x="9" y="0" class="st52 st48 st53">0</tspan></text>
	<text transform="matrix(1 0 0 1 65.1221 260.2695)"><tspan x="0" y="0" class="st52 st48 st53">0</tspan><tspan x="4.5" y="0" class="st52 st48 st53">A</tspan><tspan x="10.6" y="0" class="st52 st48 st53">H</tspan></text>
	<text transform="matrix(1 0 0 1 61.2329 269.7734)"><tspan x="0" y="0" class="st52 st48 st53">6</tspan><tspan x="4.5" y="0" class="st52 st48 st53">22</tspan><tspan x="13.5" y="0" class="st52 st48 st53">C</tspan><tspan x="19.9" y="0" class="st52 st48 st53">E</tspan></text>
	<text transform="matrix(1 0 0 1 112.1494 260.2695)"><tspan x="0" y="0" class="st52 st48 st53">10</tspan><tspan x="9" y="0" class="st52 st48 st53">0</tspan><tspan x="13.5" y="0" class="st52 st48 st53">A</tspan><tspan x="19.6" y="0" class="st52 st48 st53">H</tspan></text>
	<text transform="matrix(1 0 0 1 112.7568 269.7734)"><tspan x="0" y="0" class="st52 st48 st53">71</tspan><tspan x="9" y="0" class="st52 st48 st53">8</tspan><tspan x="13.5" y="0" class="st52 st48 st53">C</tspan><tspan x="19.9" y="0" class="st52 st48 st53">E</tspan></text>
	<text transform="matrix(1 0 0 1 163.6733 260.2695)"><tspan x="0" y="0" class="st52 st48 st53">2</tspan><tspan x="4.5" y="0" class="st52 st48 st53">00</tspan><tspan x="13.5" y="0" class="st52 st48 st53">A</tspan><tspan x="19.6" y="0" class="st52 st48 st53">H</tspan></text>
	<text transform="matrix(1 0 0 1 164.2808 269.7734)"><tspan x="0" y="0" class="st52 st48 st53">8</tspan><tspan x="4.5" y="0" class="st52 st48 st53">15</tspan><tspan x="13.5" y="0" class="st52 st48 st53">C</tspan><tspan x="19.9" y="0" class="st52 st48 st53">E</tspan></text>
	<text transform="matrix(1 0 0 1 215.1973 260.2695)"><tspan x="0" y="0" class="st52 st48 st53">3</tspan><tspan x="4.5" y="0" class="st52 st48 st53">00</tspan><tspan x="13.5" y="0" class="st52 st48 st53">A</tspan><tspan x="19.6" y="0" class="st52 st48 st53">H</tspan></text>
	<text transform="matrix(1 0 0 1 215.8047 269.7734)"><tspan x="0" y="0" class="st52 st48 st53">9</tspan><tspan x="4.5" y="0" class="st52 st48 st53">12</tspan><tspan x="13.5" y="0" class="st52 st48 st53">C</tspan><tspan x="19.9" y="0" class="st52 st48 st53">E</tspan></text>
	<text transform="matrix(1 0 0 1 266.7217 260.2695)"><tspan x="0" y="0" class="st52 st48 st53">4</tspan><tspan x="4.5" y="0" class="st52 st48 st53">0</tspan><tspan x="9" y="0" class="st52 st48 st53">0</tspan><tspan x="13.5" y="0" class="st52 st48 st53">A</tspan><tspan x="19.6" y="0" class="st52 st48 st53">H</tspan></text>
	<text transform="matrix(1 0 0 1 265.0845 269.7734)"><tspan x="0" y="0" class="st52 st48 st53">1</tspan><tspan x="4.5" y="0" class="st52 st48 st53">0</tspan><tspan x="9" y="0" class="st52 st48 st53">09</tspan><tspan x="18" y="0" class="st52 st48 st53">C</tspan><tspan x="24.4" y="0" class="st52 st48 st53">E</tspan></text>
	<text transform="matrix(1 0 0 1 318.2544 260.2695)"><tspan x="0" y="0" class="st52 st48 st53">5</tspan><tspan x="4.5" y="0" class="st52 st48 st53">0</tspan><tspan x="9" y="0" class="st52 st48 st53">0</tspan><tspan x="13.5" y="0" class="st52 st48 st53">A</tspan><tspan x="19.6" y="0" class="st52 st48 st53">H</tspan></text>
	<text transform="matrix(1 0 0 1 316.6177 269.7734)"><tspan x="0" y="0" class="st52 st48 st53">1</tspan><tspan x="4.5" y="0" class="st52 st48 st53">1</tspan><tspan x="9" y="0" class="st52 st48 st53">06</tspan><tspan x="18" y="0" class="st52 st48 st53">C</tspan><tspan x="24.4" y="0" class="st52 st48 st53">E</tspan></text>
	<text transform="matrix(1 0 0 1 369.7871 260.2695)"><tspan x="0" y="0" class="st52 st48 st53">6</tspan><tspan x="4.5" y="0" class="st52 st48 st53">0</tspan><tspan x="9" y="0" class="st52 st48 st53">0</tspan><tspan x="13.5" y="0" class="st52 st48 st53">A</tspan><tspan x="19.6" y="0" class="st52 st48 st53">H</tspan></text>
	<text transform="matrix(1 0 0 1 368.1504 269.7734)"><tspan x="0" y="0" class="st52 st48 st53">1</tspan><tspan x="4.5" y="0" class="st52 st48 st53">2</tspan><tspan x="9" y="0" class="st52 st48 st53">03</tspan><tspan x="18" y="0" class="st52 st48 st53">C</tspan><tspan x="24.4" y="0" class="st52 st48 st53">E</tspan></text>
	<text transform="matrix(1 0 0 1 421.3198 260.2695)"><tspan x="0" y="0" class="st52 st48 st53">7</tspan><tspan x="4.5" y="0" class="st52 st48 st53">0</tspan><tspan x="9" y="0" class="st52 st48 st53">0</tspan><tspan x="13.5" y="0" class="st52 st48 st53">A</tspan><tspan x="19.6" y="0" class="st52 st48 st53">H</tspan></text>
	<text transform="matrix(1 0 0 1 419.6831 269.7734)"><tspan x="0" y="0" class="st52 st48 st53">1</tspan><tspan x="4.5" y="0" class="st52 st48 st53">3</tspan><tspan x="9" y="0" class="st52 st48 st53">00</tspan><tspan x="18" y="0" class="st52 st48 st53">C</tspan><tspan x="24.4" y="0" class="st52 st48 st53">E</tspan></text>
	<text transform="matrix(1 0 0 1 472.8525 260.2695)"><tspan x="0" y="0" class="st52 st48 st53">8</tspan><tspan x="4.5" y="0" class="st52 st48 st53">0</tspan><tspan x="9" y="0" class="st52 st48 st53">0</tspan><tspan x="13.5" y="0" class="st52 st48 st53">A</tspan><tspan x="19.6" y="0" class="st52 st48 st53">H</tspan></text>
	<text transform="matrix(1 0 0 1 471.2158 269.7734)"><tspan x="0" y="0" class="st52 st48 st53">1</tspan><tspan x="4.5" y="0" class="st52 st48 st53">3</tspan><tspan x="9" y="0" class="st52 st48 st53">97</tspan><tspan x="18" y="0" class="st52 st48 st53">C</tspan><tspan x="24.4" y="0" class="st52 st48 st53">E</tspan></text>
	<text transform="matrix(1 0 0 1 524.3857 260.2695)"><tspan x="0" y="0" class="st52 st48 st53">900</tspan><tspan x="13.5" y="0" class="st52 st48 st53">A</tspan><tspan x="19.6" y="0" class="st52 st48 st53">H</tspan></text>
	<text transform="matrix(1 0 0 1 522.749 269.7734)"><tspan x="0" y="0" class="st52 st48 st53">149</tspan><tspan x="13.5" y="0" class="st52 st48 st53">4</tspan><tspan x="18" y="0" class="st52 st48 st53">C</tspan><tspan x="24.4" y="0" class="st52 st48 st53">E</tspan></text>
	<text transform="matrix(1 0 0 1 573.665 260.2695)"><tspan x="0" y="0" class="st52 st48 st53">100</tspan><tspan x="13.5" y="0" class="st52 st48 st53">0</tspan><tspan x="18" y="0" class="st52 st48 st53">A</tspan><tspan x="24.1" y="0" class="st52 st48 st53">H</tspan></text>
	<text transform="matrix(1 0 0 1 574.2725 269.7734)"><tspan x="0" y="0" class="st52 st48 st53">159</tspan><tspan x="13.5" y="0" class="st52 st48 st53">1</tspan><tspan x="18" y="0" class="st52 st48 st53">C</tspan><tspan x="24.4" y="0" class="st52 st48 st53">E</tspan></text>
	<text transform="matrix(1 0 0 1 625.1895 260.2695)"><tspan x="0" y="0" class="st52 st48 st53">110</tspan><tspan x="13.5" y="0" class="st52 st48 st53">0</tspan><tspan x="18" y="0" class="st52 st48 st53">A</tspan><tspan x="24.1" y="0" class="st52 st48 st53">H</tspan></text>
	<text transform="matrix(1 0 0 1 625.7969 269.7734)"><tspan x="0" y="0" class="st52 st48 st53">168</tspan><tspan x="13.5" y="0" class="st52 st48 st53">8</tspan><tspan x="18" y="0" class="st52 st48 st53">C</tspan><tspan x="24.4" y="0" class="st52 st48 st53">E</tspan></text>
	<text transform="matrix(1 0 0 1 676.7129 260.2695)"><tspan x="0" y="0" class="st52 st48 st53">120</tspan><tspan x="13.5" y="0" class="st52 st48 st53">0</tspan><tspan x="18" y="0" class="st52 st48 st53">A</tspan><tspan x="24.1" y="0" class="st52 st48 st53">H</tspan></text>
	<text transform="matrix(1 0 0 1 677.3203 269.7734)"><tspan x="0" y="0" class="st52 st48 st53">178</tspan><tspan x="13.5" y="0" class="st52 st48 st53">5</tspan><tspan x="18" y="0" class="st52 st48 st53">C</tspan><tspan x="24.4" y="0" class="st52 st48 st53">E</tspan></text>
	<text transform="matrix(1 0 0 1 728.2373 260.2695)"><tspan x="0" y="0" class="st52 st48 st53">130</tspan><tspan x="13.5" y="0" class="st52 st48 st53">0</tspan><tspan x="18" y="0" class="st52 st48 st53">A</tspan><tspan x="24.1" y="0" class="st52 st48 st53">H</tspan></text>
	<text transform="matrix(1 0 0 1 728.8447 269.7734)"><tspan x="0" y="0" class="st52 st48 st53">188</tspan><tspan x="13.5" y="0" class="st52 st48 st53">2</tspan><tspan x="18" y="0" class="st52 st48 st53">C</tspan><tspan x="24.4" y="0" class="st52 st48 st53">E</tspan></text>
	<text transform="matrix(1 0 0 1 779.7617 260.2695)"><tspan x="0" y="0" class="st52 st48 st53">140</tspan><tspan x="13.5" y="0" class="st52 st48 st53">0</tspan><tspan x="18" y="0" class="st52 st48 st53">A</tspan><tspan x="24.1" y="0" class="st52 st48 st53">H</tspan></text>
	<text transform="matrix(1 0 0 1 780.3682 269.7734)"><tspan x="0" y="0" class="st52 st48 st53">197</tspan><tspan x="13.5" y="0" class="st52 st48 st53">9</tspan><tspan x="18" y="0" class="st52 st48 st53">C</tspan><tspan x="24.4" y="0" class="st52 st48 st53">E</tspan></text>
</g>
</svg>
